G04 #@! TF.GenerationSoftware,KiCad,Pcbnew,(5.1.2-1)-1*
G04 #@! TF.CreationDate,2020-04-21T23:38:16-04:00*
G04 #@! TF.ProjectId,thonkiconn_breadboard_adapter_v3,74686f6e-6b69-4636-9f6e-6e5f62726561,rev?*
G04 #@! TF.SameCoordinates,Original*
G04 #@! TF.FileFunction,Legend,Top*
G04 #@! TF.FilePolarity,Positive*
%FSLAX46Y46*%
G04 Gerber Fmt 4.6, Leading zero omitted, Abs format (unit mm)*
G04 Created by KiCad (PCBNEW (5.1.2-1)-1) date 2020-04-21 23:38:16*
%MOMM*%
%LPD*%
G04 APERTURE LIST*
%ADD10C,0.101600*%
%ADD11C,0.127000*%
%ADD12C,0.152400*%
%ADD13C,0.150000*%
%ADD14C,0.120000*%
G04 APERTURE END LIST*
D10*
X148827066Y-84395733D02*
X148759333Y-84361866D01*
X148725466Y-84328000D01*
X148691600Y-84260266D01*
X148691600Y-84057066D01*
X148725466Y-83989333D01*
X148759333Y-83955466D01*
X148827066Y-83921600D01*
X148928666Y-83921600D01*
X148996400Y-83955466D01*
X149030266Y-83989333D01*
X149064133Y-84057066D01*
X149064133Y-84260266D01*
X149030266Y-84328000D01*
X148996400Y-84361866D01*
X148928666Y-84395733D01*
X148827066Y-84395733D01*
X149368933Y-84395733D02*
X149368933Y-83921600D01*
X149368933Y-84057066D02*
X149402800Y-83989333D01*
X149436666Y-83955466D01*
X149504400Y-83921600D01*
X149572133Y-83921600D01*
X149335066Y-78299733D02*
X149267333Y-78265866D01*
X149233466Y-78232000D01*
X149199600Y-78164266D01*
X149199600Y-77961066D01*
X149233466Y-77893333D01*
X149267333Y-77859466D01*
X149335066Y-77825600D01*
X149436666Y-77825600D01*
X149504400Y-77859466D01*
X149538266Y-77893333D01*
X149572133Y-77961066D01*
X149572133Y-78164266D01*
X149538266Y-78232000D01*
X149504400Y-78265866D01*
X149436666Y-78299733D01*
X149335066Y-78299733D01*
X149876933Y-78299733D02*
X149876933Y-77825600D01*
X149876933Y-77961066D02*
X149910800Y-77893333D01*
X149944666Y-77859466D01*
X150012400Y-77825600D01*
X150080133Y-77825600D01*
X148827066Y-73473733D02*
X148759333Y-73439866D01*
X148725466Y-73406000D01*
X148691600Y-73338266D01*
X148691600Y-73135066D01*
X148725466Y-73067333D01*
X148759333Y-73033466D01*
X148827066Y-72999600D01*
X148928666Y-72999600D01*
X148996400Y-73033466D01*
X149030266Y-73067333D01*
X149064133Y-73135066D01*
X149064133Y-73338266D01*
X149030266Y-73406000D01*
X148996400Y-73439866D01*
X148928666Y-73473733D01*
X148827066Y-73473733D01*
X149368933Y-73473733D02*
X149368933Y-72999600D01*
X149368933Y-73135066D02*
X149402800Y-73067333D01*
X149436666Y-73033466D01*
X149504400Y-72999600D01*
X149572133Y-72999600D01*
D11*
X148444857Y-84926714D02*
X148626285Y-85688714D01*
X148771428Y-85144428D01*
X148916571Y-85688714D01*
X149098000Y-84926714D01*
X149896285Y-85761285D02*
X149823714Y-85725000D01*
X149751142Y-85652428D01*
X149642285Y-85543571D01*
X149569714Y-85507285D01*
X149497142Y-85507285D01*
X149533428Y-85688714D02*
X149460857Y-85652428D01*
X149388285Y-85579857D01*
X149352000Y-85434714D01*
X149352000Y-85180714D01*
X149388285Y-85035571D01*
X149460857Y-84963000D01*
X149533428Y-84926714D01*
X149678571Y-84926714D01*
X149751142Y-84963000D01*
X149823714Y-85035571D01*
X149860000Y-85180714D01*
X149860000Y-85434714D01*
X149823714Y-85579857D01*
X149751142Y-85652428D01*
X149678571Y-85688714D01*
X149533428Y-85688714D01*
X150186571Y-85688714D02*
X150186571Y-84926714D01*
X150476857Y-84926714D01*
X150549428Y-84963000D01*
X150585714Y-84999285D01*
X150622000Y-85071857D01*
X150622000Y-85180714D01*
X150585714Y-85253285D01*
X150549428Y-85289571D01*
X150476857Y-85325857D01*
X150186571Y-85325857D01*
X150948571Y-85398428D02*
X151529142Y-85398428D01*
X151892000Y-85688714D02*
X151892000Y-84926714D01*
X152182285Y-84926714D01*
X152254857Y-84963000D01*
X152291142Y-84999285D01*
X152327428Y-85071857D01*
X152327428Y-85180714D01*
X152291142Y-85253285D01*
X152254857Y-85289571D01*
X152182285Y-85325857D01*
X151892000Y-85325857D01*
X152871714Y-84926714D02*
X152871714Y-85471000D01*
X152835428Y-85579857D01*
X152762857Y-85652428D01*
X152654000Y-85688714D01*
X152581428Y-85688714D01*
X153162000Y-84926714D02*
X153633714Y-84926714D01*
X153379714Y-85217000D01*
X153488571Y-85217000D01*
X153561142Y-85253285D01*
X153597428Y-85289571D01*
X153633714Y-85362142D01*
X153633714Y-85543571D01*
X153597428Y-85616142D01*
X153561142Y-85652428D01*
X153488571Y-85688714D01*
X153270857Y-85688714D01*
X153198285Y-85652428D01*
X153162000Y-85616142D01*
X154105428Y-84926714D02*
X154178000Y-84926714D01*
X154250571Y-84963000D01*
X154286857Y-84999285D01*
X154323142Y-85071857D01*
X154359428Y-85217000D01*
X154359428Y-85398428D01*
X154323142Y-85543571D01*
X154286857Y-85616142D01*
X154250571Y-85652428D01*
X154178000Y-85688714D01*
X154105428Y-85688714D01*
X154032857Y-85652428D01*
X153996571Y-85616142D01*
X153960285Y-85543571D01*
X153924000Y-85398428D01*
X153924000Y-85217000D01*
X153960285Y-85071857D01*
X153996571Y-84999285D01*
X154032857Y-84963000D01*
X154105428Y-84926714D01*
X155085142Y-85688714D02*
X154649714Y-85688714D01*
X154867428Y-85688714D02*
X154867428Y-84926714D01*
X154794857Y-85035571D01*
X154722285Y-85108142D01*
X154649714Y-85144428D01*
X155411714Y-85688714D02*
X155411714Y-84926714D01*
X155665714Y-85471000D01*
X155919714Y-84926714D01*
X155919714Y-85688714D01*
X156282571Y-85398428D02*
X156863142Y-85398428D01*
X157625142Y-85688714D02*
X157189714Y-85688714D01*
X157407428Y-85688714D02*
X157407428Y-84926714D01*
X157334857Y-85035571D01*
X157262285Y-85108142D01*
X157189714Y-85144428D01*
X157915428Y-84999285D02*
X157951714Y-84963000D01*
X158024285Y-84926714D01*
X158205714Y-84926714D01*
X158278285Y-84963000D01*
X158314571Y-84999285D01*
X158350857Y-85071857D01*
X158350857Y-85144428D01*
X158314571Y-85253285D01*
X157879142Y-85688714D01*
X158350857Y-85688714D01*
X149003657Y-78802895D02*
X149197180Y-79615695D01*
X149352000Y-79035123D01*
X149506819Y-79615695D01*
X149700342Y-78802895D01*
X150551847Y-79693104D02*
X150474438Y-79654400D01*
X150397028Y-79576990D01*
X150280914Y-79460876D01*
X150203504Y-79422171D01*
X150126095Y-79422171D01*
X150164800Y-79615695D02*
X150087390Y-79576990D01*
X150009980Y-79499580D01*
X149971276Y-79344761D01*
X149971276Y-79073828D01*
X150009980Y-78919009D01*
X150087390Y-78841600D01*
X150164800Y-78802895D01*
X150319619Y-78802895D01*
X150397028Y-78841600D01*
X150474438Y-78919009D01*
X150513142Y-79073828D01*
X150513142Y-79344761D01*
X150474438Y-79499580D01*
X150397028Y-79576990D01*
X150319619Y-79615695D01*
X150164800Y-79615695D01*
X150861485Y-79615695D02*
X150861485Y-78802895D01*
X151171123Y-78802895D01*
X151248533Y-78841600D01*
X151287238Y-78880304D01*
X151325942Y-78957714D01*
X151325942Y-79073828D01*
X151287238Y-79151238D01*
X151248533Y-79189942D01*
X151171123Y-79228647D01*
X150861485Y-79228647D01*
X151674285Y-79306057D02*
X152293561Y-79306057D01*
X152680609Y-79615695D02*
X152680609Y-78802895D01*
X152990247Y-78802895D01*
X153067657Y-78841600D01*
X153106361Y-78880304D01*
X153145066Y-78957714D01*
X153145066Y-79073828D01*
X153106361Y-79151238D01*
X153067657Y-79189942D01*
X152990247Y-79228647D01*
X152680609Y-79228647D01*
X153725638Y-78802895D02*
X153725638Y-79383466D01*
X153686933Y-79499580D01*
X153609523Y-79576990D01*
X153493409Y-79615695D01*
X153416000Y-79615695D01*
X154035276Y-78802895D02*
X154538438Y-78802895D01*
X154267504Y-79112533D01*
X154383619Y-79112533D01*
X154461028Y-79151238D01*
X154499733Y-79189942D01*
X154538438Y-79267352D01*
X154538438Y-79460876D01*
X154499733Y-79538285D01*
X154461028Y-79576990D01*
X154383619Y-79615695D01*
X154151390Y-79615695D01*
X154073980Y-79576990D01*
X154035276Y-79538285D01*
X154925485Y-79615695D02*
X155080304Y-79615695D01*
X155157714Y-79576990D01*
X155196419Y-79538285D01*
X155273828Y-79422171D01*
X155312533Y-79267352D01*
X155312533Y-78957714D01*
X155273828Y-78880304D01*
X155235123Y-78841600D01*
X155157714Y-78802895D01*
X155002895Y-78802895D01*
X154925485Y-78841600D01*
X154886780Y-78880304D01*
X154848076Y-78957714D01*
X154848076Y-79151238D01*
X154886780Y-79228647D01*
X154925485Y-79267352D01*
X155002895Y-79306057D01*
X155157714Y-79306057D01*
X155235123Y-79267352D01*
X155273828Y-79228647D01*
X155312533Y-79151238D01*
X155776990Y-79151238D02*
X155699580Y-79112533D01*
X155660876Y-79073828D01*
X155622171Y-78996419D01*
X155622171Y-78957714D01*
X155660876Y-78880304D01*
X155699580Y-78841600D01*
X155776990Y-78802895D01*
X155931809Y-78802895D01*
X156009219Y-78841600D01*
X156047923Y-78880304D01*
X156086628Y-78957714D01*
X156086628Y-78996419D01*
X156047923Y-79073828D01*
X156009219Y-79112533D01*
X155931809Y-79151238D01*
X155776990Y-79151238D01*
X155699580Y-79189942D01*
X155660876Y-79228647D01*
X155622171Y-79306057D01*
X155622171Y-79460876D01*
X155660876Y-79538285D01*
X155699580Y-79576990D01*
X155776990Y-79615695D01*
X155931809Y-79615695D01*
X156009219Y-79576990D01*
X156047923Y-79538285D01*
X156086628Y-79460876D01*
X156086628Y-79306057D01*
X156047923Y-79228647D01*
X156009219Y-79189942D01*
X155931809Y-79151238D01*
X156396266Y-79576990D02*
X156512380Y-79615695D01*
X156705904Y-79615695D01*
X156783314Y-79576990D01*
X156822019Y-79538285D01*
X156860723Y-79460876D01*
X156860723Y-79383466D01*
X156822019Y-79306057D01*
X156783314Y-79267352D01*
X156705904Y-79228647D01*
X156551085Y-79189942D01*
X156473676Y-79151238D01*
X156434971Y-79112533D01*
X156396266Y-79035123D01*
X156396266Y-78957714D01*
X156434971Y-78880304D01*
X156473676Y-78841600D01*
X156551085Y-78802895D01*
X156744609Y-78802895D01*
X156860723Y-78841600D01*
X157209066Y-79615695D02*
X157209066Y-78802895D01*
X157480000Y-79383466D01*
X157750933Y-78802895D01*
X157750933Y-79615695D01*
X148461790Y-73976895D02*
X148655314Y-74789695D01*
X148810133Y-74209123D01*
X148964952Y-74789695D01*
X149158476Y-73976895D01*
X150009980Y-74867104D02*
X149932571Y-74828400D01*
X149855161Y-74750990D01*
X149739047Y-74634876D01*
X149661638Y-74596171D01*
X149584228Y-74596171D01*
X149622933Y-74789695D02*
X149545523Y-74750990D01*
X149468114Y-74673580D01*
X149429409Y-74518761D01*
X149429409Y-74247828D01*
X149468114Y-74093009D01*
X149545523Y-74015600D01*
X149622933Y-73976895D01*
X149777752Y-73976895D01*
X149855161Y-74015600D01*
X149932571Y-74093009D01*
X149971276Y-74247828D01*
X149971276Y-74518761D01*
X149932571Y-74673580D01*
X149855161Y-74750990D01*
X149777752Y-74789695D01*
X149622933Y-74789695D01*
X150319619Y-74789695D02*
X150319619Y-73976895D01*
X150629257Y-73976895D01*
X150706666Y-74015600D01*
X150745371Y-74054304D01*
X150784076Y-74131714D01*
X150784076Y-74247828D01*
X150745371Y-74325238D01*
X150706666Y-74363942D01*
X150629257Y-74402647D01*
X150319619Y-74402647D01*
X151132419Y-74480057D02*
X151751695Y-74480057D01*
X152061333Y-73976895D02*
X152254857Y-74789695D01*
X152409676Y-74209123D01*
X152564495Y-74789695D01*
X152758019Y-73976895D01*
X153609523Y-74867104D02*
X153532114Y-74828400D01*
X153454704Y-74750990D01*
X153338590Y-74634876D01*
X153261180Y-74596171D01*
X153183771Y-74596171D01*
X153222476Y-74789695D02*
X153145066Y-74750990D01*
X153067657Y-74673580D01*
X153028952Y-74518761D01*
X153028952Y-74247828D01*
X153067657Y-74093009D01*
X153145066Y-74015600D01*
X153222476Y-73976895D01*
X153377295Y-73976895D01*
X153454704Y-74015600D01*
X153532114Y-74093009D01*
X153570819Y-74247828D01*
X153570819Y-74518761D01*
X153532114Y-74673580D01*
X153454704Y-74750990D01*
X153377295Y-74789695D01*
X153222476Y-74789695D01*
X153919161Y-74789695D02*
X153919161Y-73976895D01*
X154228800Y-73976895D01*
X154306209Y-74015600D01*
X154344914Y-74054304D01*
X154383619Y-74131714D01*
X154383619Y-74247828D01*
X154344914Y-74325238D01*
X154306209Y-74363942D01*
X154228800Y-74402647D01*
X153919161Y-74402647D01*
X155119009Y-73976895D02*
X154731961Y-73976895D01*
X154693257Y-74363942D01*
X154731961Y-74325238D01*
X154809371Y-74286533D01*
X155002895Y-74286533D01*
X155080304Y-74325238D01*
X155119009Y-74363942D01*
X155157714Y-74441352D01*
X155157714Y-74634876D01*
X155119009Y-74712285D01*
X155080304Y-74750990D01*
X155002895Y-74789695D01*
X154809371Y-74789695D01*
X154731961Y-74750990D01*
X154693257Y-74712285D01*
X155931809Y-74789695D02*
X155467352Y-74789695D01*
X155699580Y-74789695D02*
X155699580Y-73976895D01*
X155622171Y-74093009D01*
X155544761Y-74170419D01*
X155467352Y-74209123D01*
X156396266Y-74325238D02*
X156318857Y-74286533D01*
X156280152Y-74247828D01*
X156241447Y-74170419D01*
X156241447Y-74131714D01*
X156280152Y-74054304D01*
X156318857Y-74015600D01*
X156396266Y-73976895D01*
X156551085Y-73976895D01*
X156628495Y-74015600D01*
X156667200Y-74054304D01*
X156705904Y-74131714D01*
X156705904Y-74170419D01*
X156667200Y-74247828D01*
X156628495Y-74286533D01*
X156551085Y-74325238D01*
X156396266Y-74325238D01*
X156318857Y-74363942D01*
X156280152Y-74402647D01*
X156241447Y-74480057D01*
X156241447Y-74634876D01*
X156280152Y-74712285D01*
X156318857Y-74750990D01*
X156396266Y-74789695D01*
X156551085Y-74789695D01*
X156628495Y-74750990D01*
X156667200Y-74712285D01*
X156705904Y-74634876D01*
X156705904Y-74480057D01*
X156667200Y-74402647D01*
X156628495Y-74363942D01*
X156551085Y-74325238D01*
X157054247Y-74789695D02*
X157054247Y-73976895D01*
X157325180Y-74557466D01*
X157596114Y-73976895D01*
X157596114Y-74789695D01*
X157944457Y-74557466D02*
X158331504Y-74557466D01*
X157867047Y-74789695D02*
X158137980Y-73976895D01*
X158408914Y-74789695D01*
D12*
X149725742Y-67499895D02*
X150190200Y-67499895D01*
X149957971Y-68312695D02*
X149957971Y-67499895D01*
X150461133Y-68312695D02*
X150461133Y-67499895D01*
X150809476Y-68312695D02*
X150809476Y-67886942D01*
X150770771Y-67809533D01*
X150693361Y-67770828D01*
X150577247Y-67770828D01*
X150499838Y-67809533D01*
X150461133Y-67848238D01*
X151312638Y-68312695D02*
X151235228Y-68273990D01*
X151196523Y-68235285D01*
X151157819Y-68157876D01*
X151157819Y-67925647D01*
X151196523Y-67848238D01*
X151235228Y-67809533D01*
X151312638Y-67770828D01*
X151428752Y-67770828D01*
X151506161Y-67809533D01*
X151544866Y-67848238D01*
X151583571Y-67925647D01*
X151583571Y-68157876D01*
X151544866Y-68235285D01*
X151506161Y-68273990D01*
X151428752Y-68312695D01*
X151312638Y-68312695D01*
X151931914Y-67770828D02*
X151931914Y-68312695D01*
X151931914Y-67848238D02*
X151970619Y-67809533D01*
X152048028Y-67770828D01*
X152164142Y-67770828D01*
X152241552Y-67809533D01*
X152280257Y-67886942D01*
X152280257Y-68312695D01*
X152667304Y-68312695D02*
X152667304Y-67499895D01*
X152744714Y-68003057D02*
X152976942Y-68312695D01*
X152976942Y-67770828D02*
X152667304Y-68080466D01*
X153325285Y-68312695D02*
X153325285Y-67770828D01*
X153325285Y-67499895D02*
X153286580Y-67538600D01*
X153325285Y-67577304D01*
X153363990Y-67538600D01*
X153325285Y-67499895D01*
X153325285Y-67577304D01*
X154060676Y-68273990D02*
X153983266Y-68312695D01*
X153828447Y-68312695D01*
X153751038Y-68273990D01*
X153712333Y-68235285D01*
X153673628Y-68157876D01*
X153673628Y-67925647D01*
X153712333Y-67848238D01*
X153751038Y-67809533D01*
X153828447Y-67770828D01*
X153983266Y-67770828D01*
X154060676Y-67809533D01*
X154525133Y-68312695D02*
X154447723Y-68273990D01*
X154409019Y-68235285D01*
X154370314Y-68157876D01*
X154370314Y-67925647D01*
X154409019Y-67848238D01*
X154447723Y-67809533D01*
X154525133Y-67770828D01*
X154641247Y-67770828D01*
X154718657Y-67809533D01*
X154757361Y-67848238D01*
X154796066Y-67925647D01*
X154796066Y-68157876D01*
X154757361Y-68235285D01*
X154718657Y-68273990D01*
X154641247Y-68312695D01*
X154525133Y-68312695D01*
X155144409Y-67770828D02*
X155144409Y-68312695D01*
X155144409Y-67848238D02*
X155183114Y-67809533D01*
X155260523Y-67770828D01*
X155376638Y-67770828D01*
X155454047Y-67809533D01*
X155492752Y-67886942D01*
X155492752Y-68312695D01*
X155879800Y-67770828D02*
X155879800Y-68312695D01*
X155879800Y-67848238D02*
X155918504Y-67809533D01*
X155995914Y-67770828D01*
X156112028Y-67770828D01*
X156189438Y-67809533D01*
X156228142Y-67886942D01*
X156228142Y-68312695D01*
D13*
X138430000Y-76200000D02*
X147320000Y-76200000D01*
X143797976Y-84224761D02*
X143940833Y-84272380D01*
X144178928Y-84272380D01*
X144274166Y-84224761D01*
X144321785Y-84177142D01*
X144369404Y-84081904D01*
X144369404Y-83986666D01*
X144321785Y-83891428D01*
X144274166Y-83843809D01*
X144178928Y-83796190D01*
X143988452Y-83748571D01*
X143893214Y-83700952D01*
X143845595Y-83653333D01*
X143797976Y-83558095D01*
X143797976Y-83462857D01*
X143845595Y-83367619D01*
X143893214Y-83320000D01*
X143988452Y-83272380D01*
X144226547Y-83272380D01*
X144369404Y-83320000D01*
X144702738Y-83272380D02*
X144940833Y-84272380D01*
X145131309Y-83558095D01*
X145321785Y-84272380D01*
X145559880Y-83272380D01*
X143702738Y-80732380D02*
X144274166Y-80732380D01*
X143988452Y-81732380D02*
X143988452Y-80732380D01*
X144607500Y-81732380D02*
X144607500Y-80732380D01*
X145083690Y-81732380D02*
X145083690Y-80732380D01*
X145464642Y-80732380D01*
X145559880Y-80780000D01*
X145607500Y-80827619D01*
X145655119Y-80922857D01*
X145655119Y-81065714D01*
X145607500Y-81160952D01*
X145559880Y-81208571D01*
X145464642Y-81256190D01*
X145083690Y-81256190D01*
X144369404Y-78240000D02*
X144274166Y-78192380D01*
X144131309Y-78192380D01*
X143988452Y-78240000D01*
X143893214Y-78335238D01*
X143845595Y-78430476D01*
X143797976Y-78620952D01*
X143797976Y-78763809D01*
X143845595Y-78954285D01*
X143893214Y-79049523D01*
X143988452Y-79144761D01*
X144131309Y-79192380D01*
X144226547Y-79192380D01*
X144369404Y-79144761D01*
X144417023Y-79097142D01*
X144417023Y-78763809D01*
X144226547Y-78763809D01*
X144845595Y-79192380D02*
X144845595Y-78192380D01*
X145417023Y-79192380D01*
X145417023Y-78192380D01*
X145893214Y-79192380D02*
X145893214Y-78192380D01*
X146131309Y-78192380D01*
X146274166Y-78240000D01*
X146369404Y-78335238D01*
X146417023Y-78430476D01*
X146464642Y-78620952D01*
X146464642Y-78763809D01*
X146417023Y-78954285D01*
X146369404Y-79049523D01*
X146274166Y-79144761D01*
X146131309Y-79192380D01*
X145893214Y-79192380D01*
X143797976Y-74064761D02*
X143940833Y-74112380D01*
X144178928Y-74112380D01*
X144274166Y-74064761D01*
X144321785Y-74017142D01*
X144369404Y-73921904D01*
X144369404Y-73826666D01*
X144321785Y-73731428D01*
X144274166Y-73683809D01*
X144178928Y-73636190D01*
X143988452Y-73588571D01*
X143893214Y-73540952D01*
X143845595Y-73493333D01*
X143797976Y-73398095D01*
X143797976Y-73302857D01*
X143845595Y-73207619D01*
X143893214Y-73160000D01*
X143988452Y-73112380D01*
X144226547Y-73112380D01*
X144369404Y-73160000D01*
X144702738Y-73112380D02*
X144940833Y-74112380D01*
X145131309Y-73398095D01*
X145321785Y-74112380D01*
X145559880Y-73112380D01*
X143702738Y-70572380D02*
X144274166Y-70572380D01*
X143988452Y-71572380D02*
X143988452Y-70572380D01*
X144607500Y-71572380D02*
X144607500Y-70572380D01*
X145083690Y-71572380D02*
X145083690Y-70572380D01*
X145464642Y-70572380D01*
X145559880Y-70620000D01*
X145607500Y-70667619D01*
X145655119Y-70762857D01*
X145655119Y-70905714D01*
X145607500Y-71000952D01*
X145559880Y-71048571D01*
X145464642Y-71096190D01*
X145083690Y-71096190D01*
X144369404Y-68080000D02*
X144274166Y-68032380D01*
X144131309Y-68032380D01*
X143988452Y-68080000D01*
X143893214Y-68175238D01*
X143845595Y-68270476D01*
X143797976Y-68460952D01*
X143797976Y-68603809D01*
X143845595Y-68794285D01*
X143893214Y-68889523D01*
X143988452Y-68984761D01*
X144131309Y-69032380D01*
X144226547Y-69032380D01*
X144369404Y-68984761D01*
X144417023Y-68937142D01*
X144417023Y-68603809D01*
X144226547Y-68603809D01*
X144845595Y-69032380D02*
X144845595Y-68032380D01*
X145417023Y-69032380D01*
X145417023Y-68032380D01*
X145893214Y-69032380D02*
X145893214Y-68032380D01*
X146131309Y-68032380D01*
X146274166Y-68080000D01*
X146369404Y-68175238D01*
X146417023Y-68270476D01*
X146464642Y-68460952D01*
X146464642Y-68603809D01*
X146417023Y-68794285D01*
X146369404Y-68889523D01*
X146274166Y-68984761D01*
X146131309Y-69032380D01*
X145893214Y-69032380D01*
D14*
X161655000Y-80855000D02*
X161655000Y-81715000D01*
X161655000Y-80855000D02*
X160855000Y-80855000D01*
X155975000Y-81915000D02*
G75*
G03X155975000Y-81915000I-1800000J0D01*
G01*
X158675000Y-81565000D02*
X158675000Y-77415000D01*
X158675000Y-86415000D02*
X158675000Y-82265000D01*
X148175000Y-81415000D02*
X148175000Y-77415000D01*
X148175000Y-86415000D02*
X148175000Y-82415000D01*
X158675000Y-86415000D02*
X148175000Y-86415000D01*
X158675000Y-77415000D02*
X148175000Y-77415000D01*
X161655000Y-70060000D02*
X161655000Y-70920000D01*
X161655000Y-70060000D02*
X160855000Y-70060000D01*
X155975000Y-71120000D02*
G75*
G03X155975000Y-71120000I-1800000J0D01*
G01*
X158675000Y-70770000D02*
X158675000Y-66620000D01*
X158675000Y-75620000D02*
X158675000Y-71470000D01*
X148175000Y-70620000D02*
X148175000Y-66620000D01*
X148175000Y-75620000D02*
X148175000Y-71620000D01*
X158675000Y-75620000D02*
X148175000Y-75620000D01*
X158675000Y-66620000D02*
X148175000Y-66620000D01*
M02*
