G04 #@! TF.GenerationSoftware,KiCad,Pcbnew,(5.1.2-1)-1*
G04 #@! TF.CreationDate,2020-04-09T00:53:56-04:00*
G04 #@! TF.ProjectId,thonkiconn_breadboard_adapter_v3,74686f6e-6b69-4636-9f6e-6e5f62726561,rev?*
G04 #@! TF.SameCoordinates,Original*
G04 #@! TF.FileFunction,Legend,Bot*
G04 #@! TF.FilePolarity,Positive*
%FSLAX46Y46*%
G04 Gerber Fmt 4.6, Leading zero omitted, Abs format (unit mm)*
G04 Created by KiCad (PCBNEW (5.1.2-1)-1) date 2020-04-09 00:53:56*
%MOMM*%
%LPD*%
G04 APERTURE LIST*
%ADD10C,0.150000*%
%ADD11C,0.120000*%
G04 APERTURE END LIST*
D10*
X154082380Y-74827380D02*
X153510952Y-74827380D01*
X153796666Y-75827380D02*
X153796666Y-74827380D01*
X152844285Y-75303571D02*
X152701428Y-75351190D01*
X152653809Y-75398809D01*
X152606190Y-75494047D01*
X152606190Y-75636904D01*
X152653809Y-75732142D01*
X152701428Y-75779761D01*
X152796666Y-75827380D01*
X153177619Y-75827380D01*
X153177619Y-74827380D01*
X152844285Y-74827380D01*
X152749047Y-74875000D01*
X152701428Y-74922619D01*
X152653809Y-75017857D01*
X152653809Y-75113095D01*
X152701428Y-75208333D01*
X152749047Y-75255952D01*
X152844285Y-75303571D01*
X153177619Y-75303571D01*
X152225238Y-75541666D02*
X151749047Y-75541666D01*
X152320476Y-75827380D02*
X151987142Y-74827380D01*
X151653809Y-75827380D01*
X150701428Y-74827380D02*
X150368095Y-75827380D01*
X150034761Y-74827380D01*
X149796666Y-74827380D02*
X149177619Y-74827380D01*
X149510952Y-75208333D01*
X149368095Y-75208333D01*
X149272857Y-75255952D01*
X149225238Y-75303571D01*
X149177619Y-75398809D01*
X149177619Y-75636904D01*
X149225238Y-75732142D01*
X149272857Y-75779761D01*
X149368095Y-75827380D01*
X149653809Y-75827380D01*
X149749047Y-75779761D01*
X149796666Y-75732142D01*
X148320476Y-75827380D02*
X148320476Y-75303571D01*
X148368095Y-75208333D01*
X148463333Y-75160714D01*
X148653809Y-75160714D01*
X148749047Y-75208333D01*
X148320476Y-75779761D02*
X148415714Y-75827380D01*
X148653809Y-75827380D01*
X148749047Y-75779761D01*
X148796666Y-75684523D01*
X148796666Y-75589285D01*
X148749047Y-75494047D01*
X148653809Y-75446428D01*
X148415714Y-75446428D01*
X148320476Y-75398809D01*
X152130000Y-76477380D02*
X152130000Y-77191666D01*
X152177619Y-77334523D01*
X152272857Y-77429761D01*
X152415714Y-77477380D01*
X152510952Y-77477380D01*
X151749047Y-76477380D02*
X151510952Y-77477380D01*
X151320476Y-76763095D01*
X151130000Y-77477380D01*
X150891904Y-76477380D01*
X150510952Y-77477380D02*
X150510952Y-76477380D01*
X150177619Y-77191666D01*
X149844285Y-76477380D01*
X149844285Y-77477380D01*
D11*
X142935000Y-77410000D02*
X141605000Y-77410000D01*
X142935000Y-78740000D02*
X142935000Y-77410000D01*
X140335000Y-77410000D02*
X137735000Y-77410000D01*
X140335000Y-80010000D02*
X140335000Y-77410000D01*
X142935000Y-80010000D02*
X140335000Y-80010000D01*
X137735000Y-77410000D02*
X137735000Y-85150000D01*
X142935000Y-80010000D02*
X142935000Y-85150000D01*
X142935000Y-85150000D02*
X137735000Y-85150000D01*
X142935000Y-67250000D02*
X141605000Y-67250000D01*
X142935000Y-68580000D02*
X142935000Y-67250000D01*
X140335000Y-67250000D02*
X137735000Y-67250000D01*
X140335000Y-69850000D02*
X140335000Y-67250000D01*
X142935000Y-69850000D02*
X140335000Y-69850000D01*
X137735000Y-67250000D02*
X137735000Y-74990000D01*
X142935000Y-69850000D02*
X142935000Y-74990000D01*
X142935000Y-74990000D02*
X137735000Y-74990000D01*
M02*
