G04 #@! TF.GenerationSoftware,KiCad,Pcbnew,(5.1.2-1)-1*
G04 #@! TF.CreationDate,2020-04-21T23:38:16-04:00*
G04 #@! TF.ProjectId,thonkiconn_breadboard_adapter_v3,74686f6e-6b69-4636-9f6e-6e5f62726561,rev?*
G04 #@! TF.SameCoordinates,Original*
G04 #@! TF.FileFunction,Legend,Bot*
G04 #@! TF.FilePolarity,Positive*
%FSLAX46Y46*%
G04 Gerber Fmt 4.6, Leading zero omitted, Abs format (unit mm)*
G04 Created by KiCad (PCBNEW (5.1.2-1)-1) date 2020-04-21 23:38:16*
%MOMM*%
%LPD*%
G04 APERTURE LIST*
%ADD10C,0.152400*%
%ADD11C,0.120000*%
G04 APERTURE END LIST*
D10*
X156067276Y-79073828D02*
X156067276Y-79731809D01*
X156105980Y-79809219D01*
X156144685Y-79847923D01*
X156222095Y-79886628D01*
X156338209Y-79886628D01*
X156415619Y-79847923D01*
X156067276Y-79576990D02*
X156144685Y-79615695D01*
X156299504Y-79615695D01*
X156376914Y-79576990D01*
X156415619Y-79538285D01*
X156454323Y-79460876D01*
X156454323Y-79228647D01*
X156415619Y-79151238D01*
X156376914Y-79112533D01*
X156299504Y-79073828D01*
X156144685Y-79073828D01*
X156067276Y-79112533D01*
X155680228Y-79615695D02*
X155680228Y-79073828D01*
X155680228Y-78802895D02*
X155718933Y-78841600D01*
X155680228Y-78880304D01*
X155641523Y-78841600D01*
X155680228Y-78802895D01*
X155680228Y-78880304D01*
X155409295Y-79073828D02*
X155099657Y-79073828D01*
X155293180Y-78802895D02*
X155293180Y-79499580D01*
X155254476Y-79576990D01*
X155177066Y-79615695D01*
X155099657Y-79615695D01*
X154828723Y-79615695D02*
X154828723Y-78802895D01*
X154480380Y-79615695D02*
X154480380Y-79189942D01*
X154519085Y-79112533D01*
X154596495Y-79073828D01*
X154712609Y-79073828D01*
X154790019Y-79112533D01*
X154828723Y-79151238D01*
X153744990Y-79073828D02*
X153744990Y-79615695D01*
X154093333Y-79073828D02*
X154093333Y-79499580D01*
X154054628Y-79576990D01*
X153977219Y-79615695D01*
X153861104Y-79615695D01*
X153783695Y-79576990D01*
X153744990Y-79538285D01*
X153357942Y-79615695D02*
X153357942Y-78802895D01*
X153357942Y-79112533D02*
X153280533Y-79073828D01*
X153125714Y-79073828D01*
X153048304Y-79112533D01*
X153009600Y-79151238D01*
X152970895Y-79228647D01*
X152970895Y-79460876D01*
X153009600Y-79538285D01*
X153048304Y-79576990D01*
X153125714Y-79615695D01*
X153280533Y-79615695D01*
X153357942Y-79576990D01*
X152622552Y-79538285D02*
X152583847Y-79576990D01*
X152622552Y-79615695D01*
X152661257Y-79576990D01*
X152622552Y-79538285D01*
X152622552Y-79615695D01*
X151887161Y-79576990D02*
X151964571Y-79615695D01*
X152119390Y-79615695D01*
X152196800Y-79576990D01*
X152235504Y-79538285D01*
X152274209Y-79460876D01*
X152274209Y-79228647D01*
X152235504Y-79151238D01*
X152196800Y-79112533D01*
X152119390Y-79073828D01*
X151964571Y-79073828D01*
X151887161Y-79112533D01*
X151422704Y-79615695D02*
X151500114Y-79576990D01*
X151538819Y-79538285D01*
X151577523Y-79460876D01*
X151577523Y-79228647D01*
X151538819Y-79151238D01*
X151500114Y-79112533D01*
X151422704Y-79073828D01*
X151306590Y-79073828D01*
X151229180Y-79112533D01*
X151190476Y-79151238D01*
X151151771Y-79228647D01*
X151151771Y-79460876D01*
X151190476Y-79538285D01*
X151229180Y-79576990D01*
X151306590Y-79615695D01*
X151422704Y-79615695D01*
X150803428Y-79615695D02*
X150803428Y-79073828D01*
X150803428Y-79151238D02*
X150764723Y-79112533D01*
X150687314Y-79073828D01*
X150571200Y-79073828D01*
X150493790Y-79112533D01*
X150455085Y-79189942D01*
X150455085Y-79615695D01*
X150455085Y-79189942D02*
X150416380Y-79112533D01*
X150338971Y-79073828D01*
X150222857Y-79073828D01*
X150145447Y-79112533D01*
X150106742Y-79189942D01*
X150106742Y-79615695D01*
X149139123Y-78764190D02*
X149835809Y-79809219D01*
X148868190Y-79073828D02*
X148868190Y-79770514D01*
X148906895Y-79847923D01*
X148984304Y-79886628D01*
X149023009Y-79886628D01*
X148868190Y-78802895D02*
X148906895Y-78841600D01*
X148868190Y-78880304D01*
X148829485Y-78841600D01*
X148868190Y-78802895D01*
X148868190Y-78880304D01*
X148365028Y-79615695D02*
X148442438Y-79576990D01*
X148481142Y-79538285D01*
X148519847Y-79460876D01*
X148519847Y-79228647D01*
X148481142Y-79151238D01*
X148442438Y-79112533D01*
X148365028Y-79073828D01*
X148248914Y-79073828D01*
X148171504Y-79112533D01*
X148132800Y-79151238D01*
X148094095Y-79228647D01*
X148094095Y-79460876D01*
X148132800Y-79538285D01*
X148171504Y-79576990D01*
X148248914Y-79615695D01*
X148365028Y-79615695D01*
X147436114Y-79576990D02*
X147513523Y-79615695D01*
X147668342Y-79615695D01*
X147745752Y-79576990D01*
X147784457Y-79499580D01*
X147784457Y-79189942D01*
X147745752Y-79112533D01*
X147668342Y-79073828D01*
X147513523Y-79073828D01*
X147436114Y-79112533D01*
X147397409Y-79189942D01*
X147397409Y-79267352D01*
X147784457Y-79344761D01*
X147049066Y-79615695D02*
X147049066Y-79073828D01*
X147049066Y-79151238D02*
X147010361Y-79112533D01*
X146932952Y-79073828D01*
X146816838Y-79073828D01*
X146739428Y-79112533D01*
X146700723Y-79189942D01*
X146700723Y-79615695D01*
X146700723Y-79189942D02*
X146662019Y-79112533D01*
X146584609Y-79073828D01*
X146468495Y-79073828D01*
X146391085Y-79112533D01*
X146352380Y-79189942D01*
X146352380Y-79615695D01*
X161253714Y-74805419D02*
X160673142Y-74805419D01*
X160963428Y-75821419D02*
X160963428Y-74805419D01*
X160334476Y-75821419D02*
X160334476Y-74805419D01*
X159899047Y-75821419D02*
X159899047Y-75289228D01*
X159947428Y-75192466D01*
X160044190Y-75144085D01*
X160189333Y-75144085D01*
X160286095Y-75192466D01*
X160334476Y-75240847D01*
X159270095Y-75821419D02*
X159366857Y-75773038D01*
X159415238Y-75724657D01*
X159463619Y-75627895D01*
X159463619Y-75337609D01*
X159415238Y-75240847D01*
X159366857Y-75192466D01*
X159270095Y-75144085D01*
X159124952Y-75144085D01*
X159028190Y-75192466D01*
X158979809Y-75240847D01*
X158931428Y-75337609D01*
X158931428Y-75627895D01*
X158979809Y-75724657D01*
X159028190Y-75773038D01*
X159124952Y-75821419D01*
X159270095Y-75821419D01*
X158496000Y-75144085D02*
X158496000Y-75821419D01*
X158496000Y-75240847D02*
X158447619Y-75192466D01*
X158350857Y-75144085D01*
X158205714Y-75144085D01*
X158108952Y-75192466D01*
X158060571Y-75289228D01*
X158060571Y-75821419D01*
X157576761Y-75821419D02*
X157576761Y-74805419D01*
X157480000Y-75434371D02*
X157189714Y-75821419D01*
X157189714Y-75144085D02*
X157576761Y-75531133D01*
X156754285Y-75821419D02*
X156754285Y-75144085D01*
X156754285Y-74805419D02*
X156802666Y-74853800D01*
X156754285Y-74902180D01*
X156705904Y-74853800D01*
X156754285Y-74805419D01*
X156754285Y-74902180D01*
X155835047Y-75773038D02*
X155931809Y-75821419D01*
X156125333Y-75821419D01*
X156222095Y-75773038D01*
X156270476Y-75724657D01*
X156318857Y-75627895D01*
X156318857Y-75337609D01*
X156270476Y-75240847D01*
X156222095Y-75192466D01*
X156125333Y-75144085D01*
X155931809Y-75144085D01*
X155835047Y-75192466D01*
X155254476Y-75821419D02*
X155351238Y-75773038D01*
X155399619Y-75724657D01*
X155448000Y-75627895D01*
X155448000Y-75337609D01*
X155399619Y-75240847D01*
X155351238Y-75192466D01*
X155254476Y-75144085D01*
X155109333Y-75144085D01*
X155012571Y-75192466D01*
X154964190Y-75240847D01*
X154915809Y-75337609D01*
X154915809Y-75627895D01*
X154964190Y-75724657D01*
X155012571Y-75773038D01*
X155109333Y-75821419D01*
X155254476Y-75821419D01*
X154480380Y-75144085D02*
X154480380Y-75821419D01*
X154480380Y-75240847D02*
X154432000Y-75192466D01*
X154335238Y-75144085D01*
X154190095Y-75144085D01*
X154093333Y-75192466D01*
X154044952Y-75289228D01*
X154044952Y-75821419D01*
X153561142Y-75144085D02*
X153561142Y-75821419D01*
X153561142Y-75240847D02*
X153512761Y-75192466D01*
X153416000Y-75144085D01*
X153270857Y-75144085D01*
X153174095Y-75192466D01*
X153125714Y-75289228D01*
X153125714Y-75821419D01*
X151529142Y-75289228D02*
X151384000Y-75337609D01*
X151335619Y-75385990D01*
X151287238Y-75482752D01*
X151287238Y-75627895D01*
X151335619Y-75724657D01*
X151384000Y-75773038D01*
X151480761Y-75821419D01*
X151867809Y-75821419D01*
X151867809Y-74805419D01*
X151529142Y-74805419D01*
X151432380Y-74853800D01*
X151384000Y-74902180D01*
X151335619Y-74998942D01*
X151335619Y-75095704D01*
X151384000Y-75192466D01*
X151432380Y-75240847D01*
X151529142Y-75289228D01*
X151867809Y-75289228D01*
X150851809Y-75821419D02*
X150851809Y-75144085D01*
X150851809Y-75337609D02*
X150803428Y-75240847D01*
X150755047Y-75192466D01*
X150658285Y-75144085D01*
X150561523Y-75144085D01*
X149835809Y-75773038D02*
X149932571Y-75821419D01*
X150126095Y-75821419D01*
X150222857Y-75773038D01*
X150271238Y-75676276D01*
X150271238Y-75289228D01*
X150222857Y-75192466D01*
X150126095Y-75144085D01*
X149932571Y-75144085D01*
X149835809Y-75192466D01*
X149787428Y-75289228D01*
X149787428Y-75385990D01*
X150271238Y-75482752D01*
X148916571Y-75821419D02*
X148916571Y-75289228D01*
X148964952Y-75192466D01*
X149061714Y-75144085D01*
X149255238Y-75144085D01*
X149352000Y-75192466D01*
X148916571Y-75773038D02*
X149013333Y-75821419D01*
X149255238Y-75821419D01*
X149352000Y-75773038D01*
X149400380Y-75676276D01*
X149400380Y-75579514D01*
X149352000Y-75482752D01*
X149255238Y-75434371D01*
X149013333Y-75434371D01*
X148916571Y-75385990D01*
X147997333Y-75821419D02*
X147997333Y-74805419D01*
X147997333Y-75773038D02*
X148094095Y-75821419D01*
X148287619Y-75821419D01*
X148384380Y-75773038D01*
X148432761Y-75724657D01*
X148481142Y-75627895D01*
X148481142Y-75337609D01*
X148432761Y-75240847D01*
X148384380Y-75192466D01*
X148287619Y-75144085D01*
X148094095Y-75144085D01*
X147997333Y-75192466D01*
X147513523Y-75821419D02*
X147513523Y-74805419D01*
X147513523Y-75192466D02*
X147416761Y-75144085D01*
X147223238Y-75144085D01*
X147126476Y-75192466D01*
X147078095Y-75240847D01*
X147029714Y-75337609D01*
X147029714Y-75627895D01*
X147078095Y-75724657D01*
X147126476Y-75773038D01*
X147223238Y-75821419D01*
X147416761Y-75821419D01*
X147513523Y-75773038D01*
X146449142Y-75821419D02*
X146545904Y-75773038D01*
X146594285Y-75724657D01*
X146642666Y-75627895D01*
X146642666Y-75337609D01*
X146594285Y-75240847D01*
X146545904Y-75192466D01*
X146449142Y-75144085D01*
X146304000Y-75144085D01*
X146207238Y-75192466D01*
X146158857Y-75240847D01*
X146110476Y-75337609D01*
X146110476Y-75627895D01*
X146158857Y-75724657D01*
X146207238Y-75773038D01*
X146304000Y-75821419D01*
X146449142Y-75821419D01*
X145239619Y-75821419D02*
X145239619Y-75289228D01*
X145288000Y-75192466D01*
X145384761Y-75144085D01*
X145578285Y-75144085D01*
X145675047Y-75192466D01*
X145239619Y-75773038D02*
X145336380Y-75821419D01*
X145578285Y-75821419D01*
X145675047Y-75773038D01*
X145723428Y-75676276D01*
X145723428Y-75579514D01*
X145675047Y-75482752D01*
X145578285Y-75434371D01*
X145336380Y-75434371D01*
X145239619Y-75385990D01*
X144755809Y-75821419D02*
X144755809Y-75144085D01*
X144755809Y-75337609D02*
X144707428Y-75240847D01*
X144659047Y-75192466D01*
X144562285Y-75144085D01*
X144465523Y-75144085D01*
X143691428Y-75821419D02*
X143691428Y-74805419D01*
X143691428Y-75773038D02*
X143788190Y-75821419D01*
X143981714Y-75821419D01*
X144078476Y-75773038D01*
X144126857Y-75724657D01*
X144175238Y-75627895D01*
X144175238Y-75337609D01*
X144126857Y-75240847D01*
X144078476Y-75192466D01*
X143981714Y-75144085D01*
X143788190Y-75144085D01*
X143691428Y-75192466D01*
X156367238Y-77207533D02*
X155883428Y-77207533D01*
X156464000Y-77497819D02*
X156125333Y-76481819D01*
X155786666Y-77497819D01*
X155012571Y-77497819D02*
X155012571Y-76481819D01*
X155012571Y-77449438D02*
X155109333Y-77497819D01*
X155302857Y-77497819D01*
X155399619Y-77449438D01*
X155448000Y-77401057D01*
X155496380Y-77304295D01*
X155496380Y-77014009D01*
X155448000Y-76917247D01*
X155399619Y-76868866D01*
X155302857Y-76820485D01*
X155109333Y-76820485D01*
X155012571Y-76868866D01*
X154093333Y-77497819D02*
X154093333Y-76965628D01*
X154141714Y-76868866D01*
X154238476Y-76820485D01*
X154432000Y-76820485D01*
X154528761Y-76868866D01*
X154093333Y-77449438D02*
X154190095Y-77497819D01*
X154432000Y-77497819D01*
X154528761Y-77449438D01*
X154577142Y-77352676D01*
X154577142Y-77255914D01*
X154528761Y-77159152D01*
X154432000Y-77110771D01*
X154190095Y-77110771D01*
X154093333Y-77062390D01*
X153609523Y-76820485D02*
X153609523Y-77836485D01*
X153609523Y-76868866D02*
X153512761Y-76820485D01*
X153319238Y-76820485D01*
X153222476Y-76868866D01*
X153174095Y-76917247D01*
X153125714Y-77014009D01*
X153125714Y-77304295D01*
X153174095Y-77401057D01*
X153222476Y-77449438D01*
X153319238Y-77497819D01*
X153512761Y-77497819D01*
X153609523Y-77449438D01*
X152835428Y-76820485D02*
X152448380Y-76820485D01*
X152690285Y-76481819D02*
X152690285Y-77352676D01*
X152641904Y-77449438D01*
X152545142Y-77497819D01*
X152448380Y-77497819D01*
X151722666Y-77449438D02*
X151819428Y-77497819D01*
X152012952Y-77497819D01*
X152109714Y-77449438D01*
X152158095Y-77352676D01*
X152158095Y-76965628D01*
X152109714Y-76868866D01*
X152012952Y-76820485D01*
X151819428Y-76820485D01*
X151722666Y-76868866D01*
X151674285Y-76965628D01*
X151674285Y-77062390D01*
X152158095Y-77159152D01*
X151238857Y-77497819D02*
X151238857Y-76820485D01*
X151238857Y-77014009D02*
X151190476Y-76917247D01*
X151142095Y-76868866D01*
X151045333Y-76820485D01*
X150948571Y-76820485D01*
X149980952Y-76481819D02*
X149642285Y-77497819D01*
X149303619Y-76481819D01*
X149061714Y-76481819D02*
X148432761Y-76481819D01*
X148771428Y-76868866D01*
X148626285Y-76868866D01*
X148529523Y-76917247D01*
X148481142Y-76965628D01*
X148432761Y-77062390D01*
X148432761Y-77304295D01*
X148481142Y-77401057D01*
X148529523Y-77449438D01*
X148626285Y-77497819D01*
X148916571Y-77497819D01*
X149013333Y-77449438D01*
X149061714Y-77401057D01*
D11*
X142935000Y-77410000D02*
X141605000Y-77410000D01*
X142935000Y-78740000D02*
X142935000Y-77410000D01*
X140335000Y-77410000D02*
X137735000Y-77410000D01*
X140335000Y-80010000D02*
X140335000Y-77410000D01*
X142935000Y-80010000D02*
X140335000Y-80010000D01*
X137735000Y-77410000D02*
X137735000Y-85150000D01*
X142935000Y-80010000D02*
X142935000Y-85150000D01*
X142935000Y-85150000D02*
X137735000Y-85150000D01*
X142935000Y-67250000D02*
X141605000Y-67250000D01*
X142935000Y-68580000D02*
X142935000Y-67250000D01*
X140335000Y-67250000D02*
X137735000Y-67250000D01*
X140335000Y-69850000D02*
X140335000Y-67250000D01*
X142935000Y-69850000D02*
X140335000Y-69850000D01*
X137735000Y-67250000D02*
X137735000Y-74990000D01*
X142935000Y-69850000D02*
X142935000Y-74990000D01*
X142935000Y-74990000D02*
X137735000Y-74990000D01*
M02*
